<svg xmlns="http://www.w3.org/2000/svg" version="1.1" xmlns:xlink="http://www.w3.org/1999/xlink" width="192" height="192"><svg width="192" height="192" viewBox="0 0 192 192" fill="none" xmlns="http://www.w3.org/2000/svg">
<rect width="192" height="192" fill="#F6F3EF"></rect>
<path d="M27.968 141V137.032L33.728 135.88C36.8 135.368 37.824 134.6 37.824 128.2V64.968C37.824 58.568 36.8 57.928 33.728 57.288L27.968 56.136V52.296H62.528V56.136L55.872 57.416C52.544 58.056 51.776 58.568 51.776 64.968V122.824C51.776 134.6 52.16 135.368 65.984 135.368C77.504 135.368 80.192 134.088 83.776 128.968C85.696 126.28 88.896 121.288 91.456 112.84H96.32L94.656 141H27.968ZM130.976 142.664C120.48 142.664 111.648 140.616 105.888 138.824L104.48 114.888H109.216C111.776 120.904 113.44 125.128 116.896 129.992C120.224 134.856 123.552 136.392 132.256 136.392C143.904 136.392 150.432 129.48 150.432 121.416C150.432 113.096 145.056 108.36 129.056 101.192C113.44 94.152 106.144 87.752 106.144 74.824C106.144 61.128 117.408 50.632 134.56 50.632C144.416 50.632 151.2 51.656 155.68 52.936L157.344 74.44H152.736C149.664 67.528 148.768 65.352 146.08 61.768C143.648 58.952 141.088 56.776 133.664 56.776C124.064 56.776 116.64 62.536 116.64 70.856C116.64 78.408 120.224 81.992 134.816 88.52C154.016 97.096 161.952 103.88 161.952 114.888C161.952 130.376 151.584 142.664 130.976 142.664Z" fill="black"></path>
</svg><style>@media (prefers-color-scheme: light) { :root { filter: none; } }
@media (prefers-color-scheme: dark) { :root { filter: none; } }
</style></svg>